<?xml version="1.0" encoding="utf-8"?>
<svg version="1.0" xmlns="http://www.w3.org/2000/svg" width="820.000000pt" height="940.000000pt" viewBox="0 0 820.000000 940.000000" preserveAspectRatio="xMidYMid meet" xmlns:bx="https://boxy-svg.com"><defs><bx:export><bx:file format="svg" units="pt"/></bx:export></defs><g transform="translate(0.000000,940.000000) scale(0.100000,-0.100000)" fill="#000000" stroke="none"><path d="M 6945 9203 C 6884.674 9197 6774.433 9317.389 6340 9199 C 6226.619 9168.102 5937.141 9087.895 5900 9062 C 5423.443 8729.738 5314 8388 5295 8364 C 5250 8309 4876 7301 4873 7292 C 4870 7283 4620 6742 4620 6688 C 4620 6630 2771.874 4346.583 2750.874 4300.583 C 2742.874 4284.583 2279.547 3720.3 2266 3706 C 1780.666 3193.702 633.791 2655.018 423 2503 C 376.754 2469.648 121 2020 122 1780 C 122 1572 145.274 1509.814 199.274 1473.814 C 240.274 1446.814 408 1224 423 1201 C 439 1179 492 1140 518 1115 C 606 1030 865 903 944 895 C 1017 887 1176 798 1517 793 C 1953 786 2089 799 2140 850 C 2151 861 2739.242 1173.453 2830 1137 C 2831 1131 2832 621 2879 569 C 2896 551 3372.259 57.723 3637.646 34.112 C 3720.483 26.742 4051.615 63.82 4291 402 C 4524.747 666.845 4571 1051 4571 1051 C 4571 1184 4488 1370 4484 1443 C 4477 1559 4361.366 1735.149 4115 1805 C 4085 1857 3889 1893 3895 1996 C 3897 2028 6261 4621 6296 4636 C 6321 4646 6449 4819 6477 4820 C 6507 4820 6506 4523 6506 4523 C 6506 4523 6573.66 4361.771 6756 4233 C 6812.035 4193.427 7059.83 4031.798 7059.83 4031.798 L 7317 3990 C 7478 3991 7605.03 4051.144 7652 4069 C 8052.611 4221.294 8090 4775 8097 5075 C 8102 5328 8102 5337 8081 5378 C 8069 5401 8031.652 5570.073 7991.652 5598.073 C 7972.652 5612.073 7911 5683 7902 5701 C 7889 5726 7270 6048 7270 6080 C 7270 6107 7780 6854 7780 6912 C 7780 6942 7860 7049 7864 7208 C 7864 7208 7956.093 7451.075 7949 7785 C 7940.597 8180.614 7859.194 8536.868 7551 8857 C 7514.989 8894.406 7018.878 9210.348 6945 9203 Z M 6600 9031 C 6920 9031 6874.281 9031.332 6988.821 9000.674 C 7070.957 8978.689 7228.752 8892.312 7288.046 8851.426 C 7641.485 8607.714 7632.922 8138.124 7632.922 8138.124 C 7635.922 7746.124 7523.977 7598.93 7443.527 7463.086 C 7424.673 7431.25 7065 6785 7065 6785 C 7065 6785 6274 5550 6266 5517 C 6257 5482 5624 4642 5624 4642 C 5623 4538 3280.976 2269.443 3280.976 2269.443 L 2206.665 1440.792 C 2206.665 1440.792 1729.75 1282.135 1572.75 1282.135 C 1415.75 1282.135 879 1337 873 1338 C 865 1339 505 1515 505 1515 C 505 1515 310 1780 315 1892 C 323 2068 488.12 2223.632 597.036 2346.891 C 847.417 2630.246 1227 2640 1232 2695 C 1232 2695 1580 2854 1590 2886 C 1604 2929 2397.115 3481.157 2587 3775 C 2608.717 3808.606 4703 6413 4712 6475 C 4714 6489 5108 7333 5122 7341 C 5164 7364 5510.021 8358.862 5520 8375 C 5862.937 8929.603 6515 9031 6600 9031 Z M 7782.046 7461.015 C 7779.046 7356.015 7578 6955 7578 6955 C 7567 6803 6659 5451 6667 5420 C 6675 5390 6068 4696 6076 4665 C 6082 4639 3470 1983 3470 1944 C 3470 1928.908 3212.83 1666.287 2930.852 1490.758 C 2521.517 1235.95 2277.381 982.044 1833.381 968.044 C 1462.381 956.044 875 1075 875 1075 L 677.035 1195.396 L 1417.066 1100.091 C 2025.975 964.522 2895 1721 2904 1760 C 2904 1760 3371.692 2112.768 4024 2705 C 4171.719 2839.114 5886.784 4549.343 6139 4995 C 6150 4998 6659 5748 6708 5752 C 6744 5755 7384 6801 7390 6887 C 7390 6887 7475 6988 7483 7034 C 7487 7060 7796.069 7876.626 7803.069 7883.626 C 7827.069 7907.626 7785.046 7554.015 7782.046 7461.015 Z M 7378 5747 C 7393 5735 7403.166 5599.616 7379 5579 C 7142.109 5376.908 6948.009 4966.266 6945.009 4933.266 C 6941.009 4889.266 6966.56 4467.036 6929.56 4467.036 C 6912.56 4467.036 6813 4536 6786 4553 C 6752 4576 6729.335 4816.319 6737 4902 C 6751.869 5068.212 6854.254 5346.217 6871 5370 C 6916.777 5435.014 7031.761 5605.05 7145.257 5674.174 C 7203.715 5709.778 7371 5753 7378 5747 Z M 7670 5462 C 8007.048 5353.667 7905.255 4778.781 7900.12 4732.202 C 7880.794 4556.908 7830.736 4408.892 7735.185 4334.395 C 7619.906 4244.517 7468.803 4231.305 7428 4231 C 7356.899 4230.468 7195 4337 7192 4633 C 7192 4633 7190.137 4796.192 7187.137 4887.192 C 7185.137 4974.192 7370.008 5282.953 7434.944 5386.348 C 7470.147 5442.4 7597.121 5485.425 7670 5462 Z M 3808 1808 C 3836 1780 3580.874 1467.136 3542.682 1400.944 C 3275.165 937.299 3293.579 777.54 3293.579 777.54 C 3256.888 593.119 3293 510 3235 510 C 3184 510 3021.691 536.99 2997 942 C 2995.993 958.522 3151.789 1359.083 3192.168 1425.019 C 3249.584 1518.777 3396.693 1637.749 3466.507 1710.674 C 3480.338 1725.121 3588.158 1794.523 3592.158 1797.523 C 3604.158 1810.523 3795 1821 3808 1808 Z M 4011 1530 C 4250.441 1576.36 4294 1419 4296 1417 C 4304 1409 4373.643 1171.453 4365.643 1076.453 C 4358.643 993.453 4298.897 849.326 4268 790 C 4252.295 759.845 4178.085 391.257 3830.596 266.897 C 3766.572 243.984 3634.731 166.755 3579 220 C 3437.309 355.372 3460 485 3460 648 C 3460 781 3650 1132 3650 1132 L 3768.601 1368.996 C 3809.601 1385.996 3923.188 1512.998 4011 1530 Z"/><path d="M 7592 5187 C 7586 5180 7558.421 5106.487 7537.449 5099.193 C 7492.261 5083.477 7481.725 5029.56 7448.725 5023.56 C 7393.725 5011.56 7400 4977 7396 4849 C 7394 4787 7389 4714 7385 4688 C 7377 4635 7360.532 4586.532 7427.532 4586.532 C 7453.532 4586.532 7466.991 4568.89 7466.991 4537.89 C 7466.991 4494.89 7514 4516 7540 4530 C 7561 4541 7656.181 4584.781 7661.294 4615.357 C 7696.254 4824.436 7768 4754 7768 4922 C 7767 5083 7778.982 5055.71 7722.982 5061.71 C 7689.982 5064.71 7675 5097 7672 5135 C 7668 5191 7620 5221 7592 5187 Z"/><path d="M3950 1231 c-32 -5 -35 -10 -40 -46 -5 -38 -7 -40 -42 -43 l-38 -3 0 -73 c0 -79 -9 -96 -51 -96 -38 0 -37 6 -41 -200 l-3 -185 81 -3 c84 -3 122 12 111 43 -9 21 9 37 44 40 19 2 37 3 42 4 4 1 7 18 7 39 0 43 14 62 46 62 34 0 35 6 40 189 5 180 4 186 -46 193 -22 3 -25 8 -25 43 0 44 -12 50 -85 36z"/></g></svg>